<svg id="color" enable-background="new 0 0 24 24" height="512" viewBox="0 0 24 24" width="512" xmlns="http://www.w3.org/2000/svg"><path d="m18.673 4.927c-1.312-2.399-3.884-3.927-6.673-3.927-3.545 0-6.62 2.465-7.397 5.829-2.584.272-4.603 2.442-4.603 5.071 0 2.812 2.312 5.1 5.152 5.1h12.718c3.38 0 6.13-2.722 6.13-6.067 0-3.066-2.307-5.625-5.327-6.006z" fill="#eceff1"/><path d="m12 1c-3.545 0-6.62 2.465-7.397 5.829-2.584.272-4.603 2.442-4.603 5.071 0 2.812 2.312 5.1 5.152 5.1h6.848c-1.104 0-2-.896-2-2 0-1.105.896-2 2-2z" fill="#cdd0d2"/><path d="m12 17c1.104 0 2-.896 2-2 0-1.105-.896-2-2-2s-2 .896-2 2 .896 2 2 2z" fill="#00bcd4"/><path d="m12 13c-1.104 0-2 .896-2 2s.896 2 2 2z" fill="#00a4b9"/><g fill="#607d8b"><path d="m20.25 21h-6.5c-.414 0-.75-.336-.75-.75v-.5c0-1.517 1.233-2.75 2.75-2.75h2.5c1.517 0 2.75 1.233 2.75 2.75v.5c0 .414-.336.75-.75.75z"/><path d="m10.25 21h-6.5c-.414 0-.75-.336-.75-.75v-.5c0-1.517 1.233-2.75 2.75-2.75h2.5c1.517 0 2.75 1.233 2.75 2.75v.5c0 .414-.336.75-.75.75z"/><path d="m9 14c0 1.105-.896 2-2 2-1.105 0-2-.896-2-2s.896-2 2-2 2 .896 2 2z"/><path d="m19 14c0 1.105-.895 2-2 2-1.104 0-2-.896-2-2s.896-2 2-2c1.105 0 2 .896 2 2z"/></g><path d="m7 17h-1.25c-1.517 0-2.75 1.233-2.75 2.75v.5c0 .414.336.75.75.75h3.25z" fill="#546d79"/><path d="m7 12c-1.105 0-2 .896-2 2 0 1.105.896 2 2 2z" fill="#546d79"/><path d="m17 17h-1.25c-1.517 0-2.75 1.233-2.75 2.75v.5c0 .414.336.75.75.75h3.25z" fill="#546d79"/><path d="m17 12c-1.104 0-2 .896-2 2 0 1.105.896 2 2 2z" fill="#546d79"/><path d="m13.25 18h-2.5c-1.517 0-2.75 1.233-2.75 2.75v1.5c0 .414.336.75.75.75h6.5c.414 0 .75-.336.75-.75v-1.5c0-1.517-1.233-2.75-2.75-2.75z" fill="#00bcd4"/><path d="m12 18h-1.25c-1.517 0-2.75 1.233-2.75 2.75v1.5c0 .414.336.75.75.75h3.25z" fill="#00a4b9"/></svg>