<?xml version="1.0"?>
<svg xmlns="http://www.w3.org/2000/svg" viewBox="0 0 512 512" width="512px" height="512px"><g><path d="m456 400c-10 0-19.390625 2.648438-27.527344 7.261719l-37.160156-37.160157c-3.21875 3.804688-6.597656 7.5-10.15625 11.054688-3.554688 3.558594-7.25 6.9375-11.054688 10.15625l37.160157 37.160156c-4.613281 8.136719-7.261719 17.527344-7.261719 27.527344 0 30.878906 25.121094 56 56 56s56-25.121094 56-56-25.121094-56-56-56zm0 0" data-original="#000000" class="active-path" data-old_color="#000000" fill="#FFFFFF"/><path d="m217.898438 249.816406h75.4375v56.851563h-75.4375zm0 0" data-original="#000000" class="active-path" data-old_color="#000000" fill="#FFFFFF"/><path d="m370.101562 120.6875c3.804688 3.21875 7.5 6.597656 11.054688 10.15625 3.558594 3.554688 6.9375 7.25 10.15625 11.054688l37.160156-37.160157c8.136719 4.613281 17.527344 7.261719 27.527344 7.261719 30.878906 0 56-25.121094 56-56s-25.121094-56-56-56-56 25.121094-56 56c0 10.003906 2.648438 19.390625 7.261719 27.527344zm0 0" data-original="#000000" class="active-path" data-old_color="#000000" fill="#FFFFFF"/><path d="m276.683594 210.136719c0-11.613281-9.449219-21.0625-21.066406-21.0625-11.617188 0-21.066407 9.449219-21.066407 21.0625v9.683593h42.132813zm0 0" data-original="#000000" class="active-path" data-old_color="#000000" fill="#FFFFFF"/><path d="m56 112c10 0 19.390625-2.648438 27.527344-7.261719l37.160156 37.160157c3.21875-3.804688 6.597656-7.5 10.15625-11.054688 3.554688-3.558594 7.25-6.9375 11.054688-10.15625l-37.160157-37.160156c4.613281-8.136719 7.261719-17.523438 7.261719-27.527344 0-30.878906-25.121094-56-56-56s-56 25.121094-56 56 25.121094 56 56 56zm0 0" data-original="#000000" class="active-path" data-old_color="#000000" fill="#FFFFFF"/><path d="m141.898438 391.3125c-3.804688-3.21875-7.5-6.597656-11.054688-10.15625-3.558594-3.554688-6.9375-7.25-10.15625-11.054688l-37.160156 37.160157c-8.136719-4.613281-17.527344-7.261719-27.527344-7.261719-30.878906 0-56 25.121094-56 56s25.121094 56 56 56 56-25.121094 56-56c0-10-2.648438-19.390625-7.261719-27.527344zm0 0" data-original="#000000" class="active-path" data-old_color="#000000" fill="#FFFFFF"/><path d="m256 109c-81.1875 0-147 65.8125-147 147s65.8125 147 147 147 147-65.8125 147-147-65.8125-147-147-147zm67.335938 227.667969h-135.4375v-116.851563h16.652343v-9.679687c0-28.15625 22.910157-51.066407 51.066407-51.066407s51.066406 22.910157 51.066406 51.066407v9.679687h16.652344zm0 0" data-original="#000000" class="active-path" data-old_color="#000000" fill="#FFFFFF"/></g> </svg>
