<?xml version="1.0"?>
<svg xmlns="http://www.w3.org/2000/svg" xmlns:xlink="http://www.w3.org/1999/xlink" version="1.1" id="Layer_1" x="0px" y="0px" viewBox="0 0 512 512" style="enable-background:new 0 0 512 512;" xml:space="preserve" width="512px" height="512px"><g><g>
	<g>
		<path d="M501.333,245.333H266.667V192h64c5.896,0,10.667-4.771,10.667-10.667v-128c0-5.896-4.771-10.667-10.667-10.667H181.333    c-5.896,0-10.667,4.771-10.667,10.667v128c0,5.896,4.771,10.667,10.667,10.667h64v53.333H10.667C4.771,245.333,0,250.104,0,256    c0,5.896,4.771,10.667,10.667,10.667h106.667V320h-64c-5.896,0-10.667,4.771-10.667,10.667v128    c0,5.896,4.771,10.667,10.667,10.667h149.333c5.896,0,10.667-4.771,10.667-10.667v-128c0-5.896-4.771-10.667-10.667-10.667h-64    v-53.333h234.667V320h-64c-5.896,0-10.667,4.771-10.667,10.667v128c0,5.896,4.771,10.667,10.667,10.667h149.333    c5.896,0,10.667-4.771,10.667-10.667v-128c0-5.896-4.771-10.667-10.667-10.667h-64v-53.333h106.667    c5.896,0,10.667-4.771,10.667-10.667C512,250.104,507.229,245.333,501.333,245.333z M192,341.333V448H64V341.333H192z     M192,170.667V64h128v106.667H192z M448,341.333V448H320V341.333H448z" data-original="#000000" class="active-path" data-old_color="#000000" fill="#FFFFFF"/>
	</g>
</g></g> </svg>
